<?xml version="1.0" encoding="UTF-8"?>
<svg version="1.1" xmlns="http://www.w3.org/2000/svg" width="512" height="512">
<path d="M0 0 C5.27157411 4.87620605 7.55009708 9.44330815 9.7421875 16.13671875 C10.1784697 17.42712822 10.1784697 17.42712822 10.62356567 18.74360657 C11.55043568 21.49258242 12.46291058 24.2460893 13.375 27 C13.97952503 28.80044735 14.58498589 30.60058077 15.19140625 32.40039062 C16.38765181 35.95628208 17.57569569 39.51474715 18.75683594 43.07568359 C19.91755943 46.57323597 21.0932549 50.06517388 22.28222656 53.55322266 C22.56260773 54.38022171 22.84298889 55.20722076 23.13186646 56.0592804 C23.66080647 57.61840824 24.19307788 59.17641123 24.72921753 60.733078 C25.73715135 63.716931 26.5 66.13962126 26.5 69.3125 C25.89347345 69.51454894 25.28694691 69.71659788 24.66204077 69.92476952 C-11.4818616 81.96523779 -47.62522394 94.00732587 -83.76790896 106.05144788 C-88.13132023 107.50550152 -92.4947359 108.95954196 -96.8581543 110.41357422 C-97.72664031 110.70298212 -98.59512633 110.99239002 -99.4899301 111.29056786 C-113.4555134 115.94432149 -127.42145091 120.59701126 -141.38752531 125.24929084 C-155.77428991 130.04173477 -170.16066004 134.83536144 -184.54668289 139.63003147 C-192.60334657 142.3151742 -200.66017948 144.99980659 -208.71746635 147.68307877 C-239.8541076 158.05261352 -270.98711267 168.42712599 -302.02309531 179.09525359 C-343.4380986 193.3125 -343.4380986 193.3125 -347.5 193.3125 C-347.16226563 193.95316406 -346.82453125 194.59382812 -346.4765625 195.25390625 C-343.19413061 201.61954729 -340.5 207.03121837 -340.5 214.3125 C-211.8 214.3125 -83.1 214.3125 49.5 214.3125 C49.5928125 284.416875 49.5928125 284.416875 49.6875 355.9375 C49.71481201 370.70967285 49.74212402 385.4818457 49.77026367 400.70166016 C49.78381348 418.7019043 49.78381348 418.7019043 49.78633118 427.1211853 C49.78913286 433.01762464 49.80015455 438.91397906 49.81672668 444.81039429 C49.83580457 451.60839385 49.84451209 458.40631173 49.84033485 465.20433827 C49.83852528 468.6828493 49.84142153 472.16117771 49.85764539 475.63965535 C49.87250754 479.36299863 49.86899192 483.08588137 49.86076355 486.80923462 C49.87387054 488.44009538 49.87387054 488.44009538 49.88724232 490.10390282 C49.84990812 496.36444106 49.44085507 501.16211836 44.96484375 505.95703125 C40.05668301 509.71033064 37.43831677 510.45954421 31.38340378 510.44672108 C30.63832087 510.44907331 29.89323797 510.45142554 29.12557679 510.45384905 C26.60297028 510.46056094 24.08041501 510.46008017 21.55780029 510.45967102 C19.74131257 510.46296828 17.92482559 510.46669356 16.10833955 510.4708125 C11.09634678 510.48085625 6.08436598 510.4845531 1.07236457 510.48720181 C-4.32518033 510.49109782 -9.72271569 510.50067661 -15.12025452 510.50941467 C-28.16516748 510.52919872 -41.21008125 510.53924763 -54.25500548 510.54814246 C-60.39280029 510.55252208 -66.53059424 510.55788972 -72.66838837 510.56313133 C-93.06264695 510.58014534 -113.45690499 510.59464064 -133.85116959 510.60188007 C-139.1463852 510.60379008 -144.44160081 510.60571039 -149.73681641 510.60766602 C-151.71105078 510.60839163 -151.71105078 510.60839163 -153.72516868 510.6091319 C-175.05732211 510.61743638 -196.38940854 510.6427796 -217.72153917 510.67524669 C-239.60545274 510.70828301 -261.48933782 510.72632572 -283.37327647 510.72952431 C-295.66733569 510.73169256 -307.96131324 510.74048718 -320.25534821 510.76598549 C-330.7232247 510.78764567 -341.1909997 510.79576602 -351.65889606 510.78601871 C-357.00238572 510.78146044 -362.34566578 510.78344866 -367.68912697 510.80278015 C-372.57829866 510.82031581 -377.46710633 510.81949256 -382.35628137 510.80388286 C-384.12751886 510.80149213 -385.89878092 510.80590562 -387.66998067 510.81771151 C-390.07377926 510.8327449 -392.47627369 510.82321841 -394.88003922 510.80748463 C-395.57122178 510.81770683 -396.26240434 510.82792904 -396.97453183 510.83846101 C-401.91301014 510.76768499 -404.67699754 509.36315469 -408.5 506.3125 C-412.01440062 502.41816417 -413.62629715 499.534639 -413.62190533 494.28444767 C-413.62367958 493.46234336 -413.62545383 492.64023905 -413.62728184 491.79322249 C-413.62416723 490.89031664 -413.62105262 489.98741079 -413.61784363 489.05714417 C-413.61854821 488.09776835 -413.61925279 487.13839253 -413.61997873 486.14994472 C-413.62129178 482.92099031 -413.61560426 479.69208423 -413.61010742 476.46313477 C-413.60986539 474.15394083 -413.6101422 471.8447468 -413.61090088 469.53555298 C-413.61200854 464.55587497 -413.6105707 459.57620616 -413.60753441 454.59652901 C-413.60391007 446.72741388 -413.61302339 438.85834708 -413.62532043 430.98924255 C-413.62736711 429.64910065 -413.62940945 428.30895874 -413.63144749 426.96881682 C-413.6356035 424.25559799 -413.63981866 421.54237927 -413.64405501 418.82916057 C-413.65485766 411.8538005 -413.66466326 404.87843952 -413.6730957 397.90307617 C-413.67394695 397.20302745 -413.6747982 396.50297872 -413.67567525 395.7817164 C-413.68890096 384.43259853 -413.68387396 373.08355089 -413.67302414 361.73443378 C-413.66240092 350.08607621 -413.67497109 338.43790561 -413.70710641 326.78958744 C-413.72430105 320.24785089 -413.73049083 313.70650484 -413.710989 307.16476631 C-413.69282003 301.01439711 -413.70228249 294.86470195 -413.73324585 288.7143898 C-413.73963489 286.45365477 -413.73570323 284.19286422 -413.72084999 281.93216896 C-413.70211158 278.8522407 -413.719981 275.77465315 -413.74723816 272.69483948 C-413.73296994 271.79416435 -413.71870172 270.89348923 -413.70400113 269.96552092 C-413.74654361 267.59697134 -413.83537319 265.58651613 -414.5 263.3125 C-417.26975153 260.77916529 -417.26975153 260.77916529 -420.5 259.3125 C-423 257 -423 257 -425.5 254.3125 C-425.9846875 253.82136719 -426.469375 253.33023438 -426.96875 252.82421875 C-436.39087 242.7531262 -439.18416649 229.81430949 -438.8125 216.421875 C-438.19543741 205.40730776 -433.77744759 195.58994759 -426 187.8125 C-423.93275617 184.36709361 -424.85083313 182.68980325 -425.77441406 178.92041016 C-427.32663623 173.34139361 -429.22141117 167.86933191 -431.109375 162.39648438 C-433.14775413 156.24280621 -434.86425647 150.55007875 -432.80078125 144.140625 C-428.78885552 137.73422976 -424.31542758 134.90024515 -417.25561523 132.59765625 C-416.52628092 132.35048859 -415.7969466 132.10332092 -415.04551125 131.84866333 C-412.5739652 131.01405047 -410.09764376 130.19463505 -407.62109375 129.375 C-405.80728496 128.76623369 -403.9937723 128.15658445 -402.18052673 127.54614258 C-397.06942079 125.82874471 -391.95379374 124.12516765 -386.8373642 122.42370605 C-382.24158235 120.89349829 -377.6483986 119.35556779 -373.05515385 117.81776428 C-357.75540639 112.69564678 -342.4480182 107.59660683 -327.13921231 102.50164318 C-319.68153359 100.01953902 -312.22455954 97.53532076 -304.76763022 95.05096626 C-291.42519647 90.60582183 -278.08238891 86.1618007 -264.73925781 81.71875 C-263.94778843 81.45520281 -263.15631904 81.19165562 -262.34086573 80.92012215 C-255.92432572 78.78352219 -249.50776701 76.64697841 -243.0912075 74.51043701 C-237.48104364 72.64240098 -231.87088727 70.77434244 -226.26074219 68.90625 C-225.4702846 68.64304018 -224.67982702 68.37983036 -223.86541617 68.10864449 C-210.55765627 63.67732927 -197.25030898 59.24477617 -183.94324017 54.81138611 C-176.52775959 52.34089881 -169.11206997 49.87104274 -161.6958313 47.40283203 C-126.07260612 35.54677808 -90.48247353 23.6040642 -54.99672222 11.34160805 C-50.76031938 9.88139876 -46.51919575 8.4352994 -42.27661133 6.99316406 C-40.16303252 6.27087569 -38.05179808 5.54170049 -35.94262695 4.80664062 C-32.76295022 3.7001693 -29.57602188 2.61742171 -26.38671875 1.5390625 C-25.46171066 1.21112701 -24.53670258 0.88319153 -23.58366394 0.5453186 C-15.93177124 -1.99864332 -7.49239994 -3.61240711 0 0 Z M-59.81030273 33.57836914 C-60.70140244 33.85608658 -61.59250214 34.13380402 -62.51060486 34.41993713 C-66.58214552 35.71219182 -70.64897155 37.01838328 -74.7121582 38.33666992 C-76.85713547 39.02719966 -79.00561128 39.70695755 -81.1574707 40.37573242 C-84.25846242 41.34052243 -87.34627254 42.34009721 -90.43359375 43.34765625 C-91.39615585 43.63963394 -92.35871796 43.93161163 -93.35044861 44.23243713 C-98.88589471 46.07786275 -98.88589471 46.07786275 -102.48779297 50.53417969 C-102.82182129 51.78102539 -103.15584961 53.02787109 -103.5 54.3125 C-103.69080643 54.96596909 -103.88161285 55.61943817 -104.07820129 56.29270935 C-104.68967958 58.42848404 -105.23203572 60.57301878 -105.76171875 62.73046875 C-106.05499809 63.89996819 -106.05499809 63.89996819 -106.35420227 65.09309387 C-106.76283267 66.72858862 -107.16857149 68.36480834 -107.5715332 70.00170898 C-108.18877231 72.50516036 -108.81735441 75.00557001 -109.44726562 77.50585938 C-109.84442588 79.10139441 -110.24093324 80.69709214 -110.63671875 82.29296875 C-110.8241716 83.03782028 -111.01162445 83.78267181 -111.20475769 84.5500946 C-112.03328384 87.94115245 -112.5 90.79625819 -112.5 94.3125 C-111.95499847 94.18543671 -111.40999695 94.05837341 -110.84848022 93.92745972 C-106.93564859 93.0339151 -103.03901966 92.20928183 -99.07275391 91.59033203 C-80.45607218 88.618937 -80.45607218 88.618937 -64.5 79.3125 C-56.00749928 66.95031159 -53.5 47.09253994 -53.5 32.3125 C-55.84506459 32.3125 -57.56824501 32.8784201 -59.81030273 33.57836914 Z M-182.92382812 74.54663086 C-183.81485229 74.81789291 -184.70587646 75.08915497 -185.62390137 75.36863708 C-189.68401628 76.63764674 -193.73836996 77.92346732 -197.78759766 79.22680664 C-199.92458971 79.90746736 -202.06627257 80.57357702 -204.21240234 81.22485352 C-207.30997502 82.16613252 -210.38924705 83.15374774 -213.46875 84.15234375 C-214.42817505 84.43399887 -215.3876001 84.71565399 -216.37609863 85.00584412 C-221.30436149 86.59694232 -221.30436149 86.59694232 -224.70588684 90.2721405 C-225.51343163 92.61038399 -226.03774367 94.88355843 -226.5 97.3125 C-226.88170631 98.74599846 -227.27048565 100.17763457 -227.66674805 101.60717773 C-228.03544874 103.06921903 -228.40033908 104.53222569 -228.76171875 105.99609375 C-228.95723831 106.77767349 -229.15275787 107.55925323 -229.35420227 108.36451721 C-229.76167796 109.99673873 -230.1674414 111.62938861 -230.5715332 113.26245117 C-231.19225804 115.76921508 -231.81937287 118.27431984 -232.44726562 120.77929688 C-232.84412478 122.37230251 -233.24062248 123.96539825 -233.63671875 125.55859375 C-233.8241716 126.30749374 -234.01162445 127.05639374 -234.20475769 127.82798767 C-235.16268579 131.5261625 -235.16268579 131.5261625 -235.5 135.3125 C-226.70199711 133.42401751 -218.05082208 131.18578278 -209.43310547 128.59619141 C-207.64525492 128.07398938 -205.84891125 127.58002919 -204.04541016 127.11474609 C-193.95328666 124.78904921 -193.95328666 124.78904921 -186.24575806 118.46661377 C-184.27896334 114.03013043 -183.50431145 109.42208956 -182.84710693 104.63952637 C-182.31826812 101.0941582 -181.38710899 97.67473602 -180.48046875 94.2109375 C-179.87955592 91.70390334 -179.28184889 89.1960984 -178.6875 86.6875 C-178.37334796 85.37232388 -178.05889508 84.05721958 -177.74414062 82.7421875 C-176.99316508 79.59964366 -176.24512613 76.45643489 -175.5 73.3125 C-178.37675041 73.3125 -180.20310305 73.71578184 -182.92382812 74.54663086 Z M-320.73266602 119.95214844 C-322.86066325 120.60641802 -324.9956143 121.23850344 -327.13696289 121.84765625 C-339.35281715 124.82516905 -339.35281715 124.82516905 -348.66943359 132.42822266 C-349.73651199 136.09957294 -350.16343273 139.50759106 -350.5 143.3125 C-351.10234926 145.84534673 -351.74357597 148.36923982 -352.421875 150.8828125 C-353.03430723 153.4002999 -353.64367861 155.91853386 -354.25 158.4375 C-354.56886543 159.73701475 -354.88787542 161.03649404 -355.20703125 162.3359375 C-355.65369141 164.18445313 -355.65369141 164.18445313 -356.109375 166.0703125 C-356.37717773 167.1752002 -356.64498047 168.28008789 -356.92089844 169.41845703 C-357.63080772 172.47430542 -357.63080772 172.47430542 -357.5 176.3125 C-348.40188005 173.94815264 -339.40791807 171.25637841 -330.45410156 168.39868164 C-328.80752724 167.87958156 -327.15699841 167.37287428 -325.50292969 166.87817383 C-323.0851213 166.15325983 -320.68348871 165.38801677 -318.28125 164.61328125 C-317.5437854 164.40149734 -316.8063208 164.18971344 -316.04650879 163.97151184 C-313.27982947 163.04273003 -311.03215787 162.15423936 -309.43278503 159.62443542 C-308.61492015 157.53831917 -308.03062082 155.48892291 -307.5 153.3125 C-307.30624786 152.62641159 -307.11249573 151.94032318 -306.91287231 151.23344421 C-306.31580148 149.0844073 -305.77145777 146.92744769 -305.23828125 144.76171875 C-305.04276169 143.98109573 -304.84724213 143.20047272 -304.64579773 142.39619446 C-304.23774492 140.76233631 -303.83199225 139.12790211 -303.4284668 137.49291992 C-302.80948923 134.9878149 -302.18163315 132.48505251 -301.55273438 129.98242188 C-301.15572461 128.38815157 -300.75922197 126.79375489 -300.36328125 125.19921875 C-300.1758284 124.45234299 -299.98837555 123.70546722 -299.79524231 122.93595886 C-299.07075764 119.98412406 -298.5 117.36460807 -298.5 114.3125 C-305.96792694 114.3125 -313.66219852 117.74007338 -320.73266602 119.95214844 Z M-407.9375 204.6875 C-412.87870495 211.1964527 -414.42205025 217.26666423 -413.5 225.3125 C-412.02747846 231.76191604 -408.88247916 236.87764146 -403.4921875 240.7578125 C-397.44462008 244.44535361 -392.04015965 245.99140238 -384.9921875 244.9375 C-377.76257359 243.16878712 -372.39288544 239.50508759 -368.15234375 233.359375 C-364.6773542 227.03215388 -363.78461498 221.20139713 -365.625 214.25 C-368.19497231 206.73600023 -371.72645171 202.32955264 -378.53515625 198.2578125 C-388.8215369 193.30889775 -400.40818626 196.45173213 -407.9375 204.6875 Z M-330.5 238.3125 C-331.12463135 239.27091797 -331.7492627 240.22933594 -332.39282227 241.21679688 C-332.86260498 241.98056641 -333.3323877 242.74433594 -333.81640625 243.53125 C-334.35330078 244.40136719 -334.89019531 245.27148438 -335.44335938 246.16796875 C-335.97767578 247.04066406 -336.51199219 247.91335937 -337.0625 248.8125 C-337.86977539 250.12154297 -337.86977539 250.12154297 -338.69335938 251.45703125 C-342.34055791 257.38208302 -345.92440668 263.34404352 -349.5 269.3125 C-342.47806117 269.82369228 -335.4609496 270.17129407 -328.42456055 270.41113281 C-326.03797373 270.51114524 -323.65259576 270.6472404 -321.27026367 270.82128906 C-308.04641821 272.15972056 -308.04641821 272.15972056 -296.20419312 267.46517944 C-292.10551799 262.73322508 -289.32099995 257.38779388 -286.67324829 251.74639893 C-285.16203784 248.61139884 -283.36247726 245.88228828 -281.38671875 243.01953125 C-280.56977539 241.76946289 -280.56977539 241.76946289 -279.73632812 240.49414062 C-278.65457807 238.83945864 -277.57110612 237.18590163 -276.48632812 235.53320312 C-275.95845703 234.72431641 -275.43058594 233.91542969 -274.88671875 233.08203125 C-274.19388794 232.02399292 -274.19388794 232.02399292 -273.48706055 230.94458008 C-272.41374928 229.4877778 -272.41374928 229.4877778 -272.5 228.3125 C-279.63423315 228.05836661 -286.76729578 227.88359883 -293.9050293 227.76318359 C-296.33125416 227.71297802 -298.75717769 227.64479553 -301.18237305 227.55810547 C-304.67572288 227.43638596 -308.16506879 227.38001016 -311.66015625 227.3359375 C-312.73959 227.28432465 -313.81902374 227.23271179 -314.9311676 227.17953491 C-323.83185506 227.17294737 -326.44782501 230.75340522 -330.5 238.3125 Z M-206.34823608 245.90332031 C-207.78160103 248.90153345 -209.52678829 251.60683427 -211.39453125 254.3515625 C-212.36832847 255.87948175 -213.3410712 257.40807385 -214.3125 258.9375 C-214.82619141 259.73671875 -215.33988281 260.5359375 -215.86914062 261.359375 C-216.35189453 262.11992187 -216.83464844 262.88046875 -217.33203125 263.6640625 C-217.75202393 264.32229004 -218.1720166 264.98051758 -218.60473633 265.65869141 C-219.65868576 267.29220814 -219.65868576 267.29220814 -219.5 269.3125 C-212.50819831 269.56666769 -205.51759153 269.74141409 -198.5222168 269.86181641 C-196.14448539 269.9120171 -193.76706135 269.98019616 -191.39038086 270.06689453 C-187.9665146 270.18863836 -184.54673385 270.24499384 -181.12109375 270.2890625 C-179.5347538 270.36648178 -179.5347538 270.36648178 -177.91636658 270.44546509 C-173.45379978 270.448834 -170.65028213 270.43090519 -167.35810852 267.22996521 C-165.54149918 264.66589956 -163.995383 262.07428378 -162.5 259.3125 C-161.80430908 258.24749268 -161.10861816 257.18248535 -160.3918457 256.08520508 C-159.5423938 254.72238403 -159.5423938 254.72238403 -158.67578125 253.33203125 C-158.03962891 252.31302734 -157.40347656 251.29402344 -156.74804688 250.24414062 C-156.10931641 249.21482422 -155.47058594 248.18550781 -154.8125 247.125 C-153.83700195 245.56362305 -153.83700195 245.56362305 -152.84179688 243.97070312 C-149.62350873 238.80372675 -146.50119269 233.60797424 -143.5 228.3125 C-150.52193883 227.80130772 -157.5390504 227.45370593 -164.57543945 227.21386719 C-166.96202627 227.11385476 -169.34740424 226.9777596 -171.72973633 226.80371094 C-190.53620258 225.46517241 -198.25063176 228.58625092 -206.34823608 245.90332031 Z M-73.53808594 235.32275391 C-75.4996275 239.25042314 -77.08762941 243.17632129 -78.42675781 247.35693359 C-80.14845104 252.09824801 -82.98270249 255.96762985 -85.875 260.0625 C-89.14946584 264.35455006 -89.14946584 264.35455006 -90.5 269.3125 C-83.44080296 269.77167145 -76.38547412 270.08509659 -69.31469727 270.30126953 C-66.91479757 270.39140509 -64.51587637 270.5139782 -62.11938477 270.67041016 C-49.14166648 271.9887937 -49.14166648 271.9887937 -37.41299438 267.68203735 C-33.81673052 263.46703965 -31.60774222 258.67270853 -29.49398804 253.58862305 C-28.09651864 250.38857215 -26.30927738 247.67668735 -24.36328125 244.77734375 C-23.46899414 243.38225586 -23.46899414 243.38225586 -22.55664062 241.95898438 C-21.35106277 240.08649111 -20.14532322 238.21410195 -18.93945312 236.34179688 C-18.35744141 235.43365234 -17.77542969 234.52550781 -17.17578125 233.58984375 C-16.4010144 232.38702759 -16.4010144 232.38702759 -15.6105957 231.15991211 C-14.41412859 229.52891458 -14.41412859 229.52891458 -14.5 228.3125 C-46.72287283 223.48559833 -46.72287283 223.48559833 -73.53808594 235.32275391 Z M-207.5 321.3125 C-207.5 356.9525 -207.5 392.5925 -207.5 429.3125 C-203.70449395 427.79429758 -200.82303455 426.39879982 -197.4296875 424.2578125 C-196.46095703 423.649375 -195.49222656 423.0409375 -194.49414062 422.4140625 C-192.95016602 421.43566406 -192.95016602 421.43566406 -191.375 420.4375 C-190.30185547 419.76203125 -189.22871094 419.0865625 -188.12304688 418.390625 C-184.91274991 416.36869108 -181.70594121 414.34133139 -178.5 412.3125 C-176.84646044 411.26806089 -175.19282469 410.22377406 -173.5390625 409.1796875 C-171.27111535 407.74746499 -169.00350855 406.31472081 -166.73706055 404.88012695 C-161.28327115 401.4299585 -155.81348897 398.00601893 -150.33789062 394.59057617 C-146.29358131 392.06727066 -142.25263191 389.53862057 -138.21240234 387.00878906 C-136.50055868 385.93823193 -134.78750303 384.8696081 -133.07275391 383.80371094 C-131.04434459 382.54228689 -129.02136375 381.27267092 -127 380 C-125.37578125 378.98486328 -125.37578125 378.98486328 -123.71875 377.94921875 C-122.9865625 377.40910156 -122.254375 376.86898437 -121.5 376.3125 C-121.5 375.6525 -121.5 374.9925 -121.5 374.3125 C-123.19222363 372.98805072 -123.19222363 372.98805072 -125.42578125 371.6953125 C-126.27503174 371.17727051 -127.12428223 370.65922852 -127.99926758 370.12548828 C-128.92763428 369.56845215 -129.85600098 369.01141602 -130.8125 368.4375 C-132.76090416 367.25080004 -134.70881147 366.06328396 -136.65625 364.875 C-137.64238281 364.27558594 -138.62851562 363.67617188 -139.64453125 363.05859375 C-143.72820615 360.56146286 -147.77224747 358.00408428 -151.8125 355.4375 C-160.03654945 350.22623837 -168.28922608 345.06172779 -176.55078125 339.91015625 C-181.42713811 336.86715837 -186.29580486 333.81343423 -191.14453125 330.7265625 C-192.01916016 330.17033203 -192.89378906 329.61410156 -193.79492188 329.04101562 C-195.43212188 327.99823734 -197.06763572 326.95280536 -198.70117188 325.90429688 C-199.42498047 325.44345703 -200.14878906 324.98261719 -200.89453125 324.5078125 C-201.52206299 324.10578613 -202.14959473 323.70375977 -202.79614258 323.28955078 C-204.64665443 322.15383881 -204.64665443 322.15383881 -207.5 321.3125 Z " fill="#000000" transform="translate(450.5,1.6875)"/>
</svg>
